<svg width="42" height="42" viewBox="0 0 42 42" fill="none" xmlns="http://www.w3.org/2000/svg">
<rect width="42" height="42" rx="21" fill="#2F2F2F"/>
<path d="M17.6346 20.5285C17.325 20.8649 16.9047 21.0537 16.4668 21.0537C16.0286 21.0537 15.6086 20.8649 15.299 20.5285C15.083 20.302 14.7396 20.3055 14.5273 20.5359C14.3149 20.7664 14.3117 21.1391 14.5204 21.3736C15.037 21.933 15.7372 22.247 16.4668 22.247C17.1965 22.247 17.8965 21.933 18.413 21.3736C18.6217 21.1391 18.6187 20.7665 18.4064 20.5359C18.1941 20.3054 17.8507 20.302 17.6347 20.5285H17.6346Z" fill="url(#paint0_linear_11_6)"/>
<path d="M31.2217 9.175C31.1185 9.06296 30.9786 9 30.8327 9C30.6857 9.0008 30.5451 9.06536 30.4424 9.17927L26.0801 13.9597C25.8663 14.1928 25.8663 14.5698 26.0801 14.8029L26.4181 15.1697L25.5181 16.1461H24.0566C23.1568 16.1245 22.2649 16.3291 21.4503 16.7437C20.6749 16.3499 19.8292 16.1458 18.973 16.1461H17.5127L16.6127 15.1697L16.9506 14.8029C17.1652 14.5695 17.1652 14.1918 16.9506 13.9587L12.5581 9.17824C12.4554 9.06486 12.3153 9.00084 12.1689 9.00004C12.0226 9.00004 11.8825 9.063 11.7791 9.17504L5.16171 16.358C5.05825 16.47 5 16.6223 5 16.781C5 16.9398 5.05825 17.0921 5.16171 17.2041L9.56574 21.972C9.78078 22.2049 10.1288 22.2049 10.3436 21.972L10.7729 21.5059L11.3234 22.1035H11.3236C11.5559 23.4565 12.1605 24.7015 13.0577 25.6744L14.5116 27.3404H14.5114C14.5625 27.3985 14.6239 27.4447 14.692 27.4761C14.679 27.5615 14.6716 27.6479 14.6701 27.7346C14.6736 28.1919 14.8372 28.6304 15.128 28.9612C15.4187 29.2917 15.8146 29.4897 16.2351 29.5148C16.2582 29.9552 16.4298 30.3708 16.7171 30.6827C17.0044 30.9943 17.3875 31.1805 17.793 31.2053C17.8166 31.6612 17.9992 32.0904 18.3035 32.4054C18.608 32.7205 19.0113 32.8981 19.4321 32.9024H19.4387H19.4384C19.8734 32.904 20.2908 32.7165 20.5975 32.382L21.1172 31.8178H21.117C21.2453 32.1381 21.4564 32.411 21.7248 32.6037C21.9931 32.796 22.307 32.8998 22.6287 32.9024H22.6353C23.0703 32.904 23.4879 32.7165 23.7948 32.382L29.9654 25.6841C30.8676 24.708 31.4758 23.4579 31.7093 22.0988L32.2598 21.5012L32.6892 21.9672C32.7911 22.0803 32.9305 22.1446 33.0762 22.1465C33.2229 22.1454 33.3633 22.0809 33.466 21.9672L37.8393 17.1994H37.8391C38.0536 16.9662 38.0536 16.5882 37.8391 16.3551L31.2217 9.175ZM9.95527 20.704L6.33031 16.7799L12.1684 10.4458L15.7835 14.3777L9.95527 20.704ZM13.8452 24.8386V24.8383C13.0636 23.9932 12.5497 22.9003 12.3775 21.7174C12.3593 21.5929 12.3055 21.4779 12.2234 21.3888L11.5517 20.6597L15.8336 16.0118L16.8943 17.1632V17.1634C16.9975 17.2755 17.1376 17.3384 17.2836 17.3384H18.9747C20.2485 17.3368 21.4694 17.8898 22.3642 18.8736L24.662 21.1299C24.7633 21.2398 24.8198 21.3892 24.8188 21.5447C24.8174 21.8745 24.5723 22.1423 24.2683 22.1458C24.1214 22.1458 23.9806 22.0812 23.8781 21.9665L21.909 19.9313L21.9007 19.9223C21.8756 19.9017 21.8491 19.8839 21.8213 19.8684C21.7901 19.842 21.7562 19.819 21.7205 19.7998C21.6913 19.791 21.6615 19.7846 21.6313 19.7811C21.5913 19.7678 21.55 19.7593 21.5082 19.7555C21.4775 19.7593 21.4475 19.7657 21.4178 19.7747C21.3784 19.7793 21.3398 19.7886 21.3022 19.8022C21.2732 19.8196 21.2457 19.8396 21.2197 19.862C21.186 19.8812 21.1543 19.9041 21.1251 19.9305L15.2081 26.3998L13.8452 24.8386ZM30.8082 21.3887C30.7261 21.4778 30.6723 21.5928 30.6541 21.7174C30.4824 22.9002 29.9687 23.9929 29.1877 24.8383L23.0164 31.5364C22.9153 31.6455 22.7782 31.7069 22.6354 31.7066C22.3329 31.7032 22.0881 31.4377 22.0849 31.1091C22.0834 30.9536 22.14 30.8039 22.242 30.6943L22.6008 30.3048C22.6585 30.2402 22.7018 30.1621 22.7273 30.0764L24.1112 28.5743H24.1115C24.2176 28.4631 24.2781 28.3099 24.2793 28.1496C24.2808 27.9893 24.2225 27.8354 24.1181 27.722C24.0139 27.6086 23.8718 27.5457 23.7241 27.547C23.5764 27.5483 23.4356 27.6139 23.3329 27.7295L19.8234 31.5388C19.7224 31.6479 19.5858 31.7093 19.443 31.709C19.1402 31.7058 18.8957 31.4401 18.8925 31.1115C18.8903 30.9549 18.9466 30.8039 19.049 30.6932L22.559 26.8838C22.7676 26.6493 22.7647 26.2767 22.5524 26.0461C22.3398 25.8157 21.9965 25.8125 21.7804 26.0389L18.2704 29.8483C18.1694 29.9574 18.0323 30.0188 17.8895 30.0185C17.587 30.015 17.3422 29.7496 17.339 29.421C17.3368 29.2641 17.3936 29.1131 17.4961 29.0027L20.9927 25.1933C21.2014 24.9588 21.1984 24.5861 20.9861 24.3556C20.7738 24.1251 20.4304 24.122 20.2144 24.3484L16.7049 28.1584C16.6039 28.2677 16.467 28.3288 16.3245 28.328C16.0217 28.3248 15.7769 28.0591 15.774 27.7305C15.7723 27.5733 15.8295 27.4224 15.9325 27.3122L21.5268 21.1897L23.105 22.8204C23.4117 23.1552 23.8293 23.3428 24.2643 23.3409H24.2709C24.7077 23.3372 25.1254 23.147 25.4339 22.8116C25.7425 22.476 25.917 22.0223 25.9197 21.5482C25.9212 21.0641 25.7408 20.5999 25.4203 20.263L23.1232 18.0083C22.9662 17.8402 22.8008 17.682 22.6277 17.534C23.093 17.4003 23.5727 17.3347 24.0541 17.3384H25.7452C25.8912 17.3384 26.0313 17.2755 26.1345 17.1634L27.1952 16.0121L31.4798 20.6597L30.8082 21.3887ZM33.0764 20.7021L27.2472 14.3777L30.8343 10.4464L36.6697 16.7804L33.0764 20.7021Z" fill="url(#paint1_linear_11_6)"/>
<defs>
<linearGradient id="paint0_linear_11_6" x1="14.3659" y1="20.9992" x2="18.4976" y2="20.9992" gradientUnits="userSpaceOnUse">
<stop stop-color="#DA5959"/>
<stop offset="1" stop-color="#6B15A0"/>
</linearGradient>
<linearGradient id="paint1_linear_11_6" x1="5" y1="17.0901" x2="37.45" y2="17.09" gradientUnits="userSpaceOnUse">
<stop stop-color="#DA5959"/>
<stop offset="1" stop-color="#6B15A0"/>
</linearGradient>
</defs>
</svg>
