<svg width="47" height="47" viewBox="0 0 47 47" fill="none" xmlns="http://www.w3.org/2000/svg">
<rect width="47" height="47" rx="10" fill="#2F2F2F"/>
<path d="M19.4003 22.936C19.0719 23.2843 18.6262 23.4799 18.1617 23.4799C17.697 23.4799 17.2515 23.2843 16.9231 22.936C16.694 22.7016 16.3299 22.7051 16.1047 22.9438C15.8794 23.1824 15.8761 23.5683 16.0974 23.8111C16.6453 24.3902 17.3879 24.7153 18.1618 24.7153C18.9357 24.7153 19.678 24.3902 20.2259 23.8111C20.4472 23.5683 20.4441 23.1824 20.2189 22.9438C19.9937 22.7051 19.6296 22.7016 19.4004 22.936H19.4003Z" fill="url(#paint0_linear_16_3)"/>
<path d="M33.8109 11.1812C33.7014 11.0652 33.5531 11 33.3983 11C33.2424 11.0008 33.0933 11.0677 32.9844 11.1856L28.3577 16.135C28.131 16.3764 28.131 16.7667 28.3577 17.0081L28.7161 17.3879L27.7616 18.3987H26.2115C25.2572 18.3764 24.3113 18.5882 23.4472 19.0174C22.6249 18.6098 21.7279 18.3985 20.8198 18.3987H19.271L18.3165 17.3879L18.6749 17.0081C18.9024 16.7664 18.9024 16.3753 18.6749 16.134L14.0162 11.1845C13.9073 11.0672 13.7587 11.0009 13.6033 11C13.4482 11 13.2997 11.0652 13.1899 11.1812L6.17151 18.6181C6.06178 18.7341 6 18.8918 6 19.0561C6 19.2205 6.06178 19.3782 6.17151 19.4942L10.8425 24.4306C11.0705 24.6717 11.4396 24.6717 11.6674 24.4306L12.1228 23.9481L12.7066 24.5667H12.7069C12.9532 25.9676 13.5944 27.2566 14.5461 28.2639L16.0881 29.9888H16.0878C16.142 30.049 16.2072 30.0967 16.2794 30.1293C16.2656 30.2177 16.2577 30.3072 16.2562 30.397C16.2598 30.8704 16.4334 31.3244 16.7418 31.6669C17.0501 32.0091 17.4701 32.2141 17.9161 32.24C17.9406 32.696 18.1225 33.1263 18.4272 33.4492C18.7319 33.7718 19.1383 33.9646 19.5684 33.9903C19.5934 34.4623 19.7871 34.9067 20.1098 35.2329C20.4327 35.5591 20.8605 35.743 21.3067 35.7474H21.3138H21.3135C21.7749 35.7491 22.2175 35.5549 22.5428 35.2086L23.094 34.6244H23.0938C23.2299 34.9562 23.4538 35.2387 23.7384 35.4381C24.023 35.6373 24.3559 35.7447 24.6971 35.7475H24.7041C25.1655 35.7491 25.6083 35.555 25.9339 35.2086L32.4784 28.2739C33.4353 27.2633 34.0804 25.969 34.3281 24.5618L34.9119 23.9432L35.3673 24.4257C35.4755 24.5428 35.6232 24.6093 35.7778 24.6113C35.9334 24.6102 36.0823 24.5433 36.1912 24.4257L40.8296 19.4893H40.8293C41.0569 19.2479 41.0569 18.8565 40.8293 18.6151L33.8109 11.1812ZM11.2556 23.1178L7.41093 19.0549L13.6028 12.497L17.437 16.5678L11.2556 23.1178ZM15.3812 27.3985V27.3982C14.5523 26.5233 14.0073 25.3917 13.8246 24.167C13.8053 24.0381 13.7482 23.919 13.6612 23.8268L12.9488 23.0719L17.4902 18.2597L18.6152 19.4518V19.4521C18.7246 19.5681 18.8732 19.6332 19.0281 19.6332H20.8216C22.1726 19.6316 23.4675 20.2041 24.4166 21.2227L26.8537 23.5588C26.9611 23.6726 27.021 23.8272 27.02 23.9882C27.0184 24.3296 26.7585 24.6069 26.4361 24.6105C26.2802 24.6105 26.1309 24.5437 26.0222 24.4249L23.9338 22.3178L23.925 22.3084C23.8984 22.2871 23.8702 22.2686 23.8408 22.2526C23.8077 22.2253 23.7717 22.2015 23.7339 22.1816C23.7029 22.1725 23.6713 22.1659 23.6393 22.1623C23.5968 22.1485 23.553 22.1397 23.5087 22.1358C23.4761 22.1397 23.4443 22.1463 23.4128 22.1557C23.3711 22.1604 23.3301 22.17 23.2903 22.1841C23.2595 22.2021 23.2303 22.2228 23.2027 22.246C23.167 22.2659 23.1333 22.2896 23.1023 22.317L16.8268 29.0149L15.3812 27.3985ZM33.3724 23.8267C33.2853 23.919 33.2282 24.038 33.2089 24.167C33.0267 25.3916 32.4819 26.5229 31.6536 27.3982L25.1083 34.3332C25.0011 34.4461 24.8557 34.5097 24.7042 34.5094C24.3834 34.5058 24.1238 34.231 24.1204 33.8907C24.1188 33.7297 24.1788 33.5747 24.2869 33.4612L24.6675 33.058C24.7287 32.9912 24.7746 32.9102 24.8017 32.8216L26.2695 31.2663H26.2697C26.3823 31.1511 26.4464 30.9926 26.4478 30.8266C26.4493 30.6606 26.3875 30.5013 26.2768 30.3839C26.1663 30.2665 26.0156 30.2013 25.8589 30.2027C25.7023 30.2041 25.5529 30.272 25.444 30.3916L21.7218 34.3357C21.6147 34.4486 21.4698 34.5121 21.3183 34.5119C20.9972 34.5086 20.7379 34.2335 20.7345 33.8932C20.7321 33.7311 20.7918 33.5747 20.9005 33.4601L24.6232 29.5161C24.8445 29.2733 24.8413 28.8875 24.6161 28.6488C24.3907 28.4102 24.0265 28.4068 23.7974 28.6413L20.0747 32.5854C19.9676 32.6983 19.8221 32.7619 19.6707 32.7616C19.3498 32.758 19.0902 32.4832 19.0868 32.1429C19.0845 31.9805 19.1447 31.8242 19.2534 31.7098L22.962 27.7658C23.1833 27.523 23.1802 27.1372 22.9549 26.8985C22.7297 26.6599 22.3656 26.6566 22.1365 26.8911L18.4143 30.8357C18.3072 30.9489 18.162 31.0122 18.0108 31.0113C17.6897 31.008 17.4301 30.7329 17.427 30.3927C17.4251 30.23 17.4859 30.0737 17.5951 29.9596L23.5284 23.6207L25.2023 25.309C25.5276 25.6557 25.9705 25.8498 26.4318 25.8479H26.4389C26.9021 25.844 27.3452 25.6471 27.6723 25.2999C27.9997 24.9525 28.1847 24.4826 28.1876 23.9919C28.1892 23.4906 27.9978 23.01 27.6579 22.6612L25.2216 20.3268C25.055 20.1528 24.8796 19.989 24.6961 19.8357C25.1895 19.6973 25.6983 19.6294 26.2089 19.6332H28.0025C28.1573 19.6332 28.3059 19.568 28.4154 19.452L29.5404 18.26L34.0847 23.0719L33.3724 23.8267ZM35.778 23.1158L29.5955 16.5678L33.4001 12.4975L39.5891 19.0555L35.778 23.1158Z" fill="url(#paint1_linear_16_3)"/>
<defs>
<linearGradient id="paint0_linear_16_3" x1="15.9335" y1="23.4234" x2="20.3156" y2="23.4234" gradientUnits="userSpaceOnUse">
<stop stop-color="#DA5959"/>
<stop offset="1" stop-color="#6B15A0"/>
</linearGradient>
<linearGradient id="paint1_linear_16_3" x1="6" y1="19.3761" x2="40.4167" y2="19.3761" gradientUnits="userSpaceOnUse">
<stop stop-color="#DA5959"/>
<stop offset="1" stop-color="#6B15A0"/>
</linearGradient>
</defs>
</svg>
