<svg width="33" height="28" viewBox="0 0 33 28" fill="none" xmlns="http://www.w3.org/2000/svg">
<path d="M12.6346 13.5873C12.3249 13.9157 11.9047 14.1001 11.4668 14.1001C11.0286 14.1001 10.6086 13.9157 10.299 13.5873C10.0829 13.3662 9.73961 13.3696 9.52725 13.5946C9.31489 13.8196 9.31172 14.1834 9.52037 14.4123C10.037 14.9584 10.7371 15.2649 11.4668 15.2649C12.1965 15.2649 12.8964 14.9584 13.413 14.4123C13.6217 14.1834 13.6187 13.8196 13.4064 13.5946C13.1941 13.3696 12.8507 13.3662 12.6347 13.5873H12.6346Z" fill="url(#paint0_linear_7_6)"/>
<path d="M26.2217 2.50416C26.1185 2.39479 25.9786 2.33333 25.8327 2.33333C25.6857 2.33411 25.5451 2.39713 25.4424 2.50833L21.0801 7.17492C20.8663 7.40252 20.8663 7.77048 21.0801 7.99811L21.4181 8.35617L20.5181 9.30929H19.0566C18.1568 9.2882 17.2649 9.48794 16.4503 9.89262C15.6749 9.50825 14.8292 9.30903 13.973 9.30929H12.5127L11.6127 8.35617L11.9506 7.99811C12.1652 7.77024 12.1652 7.4015 11.9506 7.17392L7.55814 2.50733C7.45542 2.39665 7.31533 2.33415 7.16886 2.33337C7.02263 2.33337 6.88255 2.39483 6.77908 2.5042L0.16171 9.51609C0.0582463 9.62546 0 9.77416 0 9.9291C0 10.084 0.058245 10.2327 0.16171 10.3421L4.56574 14.9964C4.78078 15.2238 5.12878 15.2238 5.34356 14.9964L5.7729 14.5415L6.3234 15.1248H6.32365C6.55589 16.4456 7.16048 17.661 8.05771 18.6107L9.5116 20.237H9.51136C9.56247 20.2938 9.62392 20.3388 9.69199 20.3696C9.67897 20.4529 9.67159 20.5373 9.67012 20.6219C9.67356 21.0683 9.83723 21.4964 10.128 21.8193C10.4187 22.1419 10.8146 22.3352 11.2351 22.3596C11.2582 22.7896 11.4298 23.1953 11.7171 23.4998C12.0044 23.8039 12.3875 23.9857 12.793 24.0099C12.8166 24.455 12.9992 24.874 13.3035 25.1815C13.608 25.489 14.0113 25.6625 14.4321 25.6666H14.4387H14.4384C14.8734 25.6682 15.2908 25.4851 15.5975 25.1586L16.1172 24.6078H16.117C16.2453 24.9206 16.4564 25.187 16.7248 25.375C16.9931 25.5627 17.307 25.664 17.6287 25.6666H17.6353C18.0703 25.6682 18.4879 25.4851 18.7948 25.1586L24.9654 18.6202C25.8676 17.6673 26.4758 16.447 26.7093 15.1202L27.2598 14.5369L27.6892 14.9918C27.7911 15.1022 27.9305 15.165 28.0762 15.1668C28.2229 15.1658 28.3633 15.1028 28.466 14.9918L32.8393 10.3375H32.8391C33.0536 10.1099 33.0536 9.74089 32.8391 9.51331L26.2217 2.50416ZM4.95527 13.7586L1.33031 9.92798L7.16835 3.74474L10.7835 7.58295L4.95527 13.7586ZM8.84516 17.7948V17.7945C8.06363 16.9695 7.54974 15.9026 7.37748 14.748C7.3593 14.6264 7.30548 14.5141 7.22339 14.4271L6.55171 13.7154L10.8336 9.17823L11.8943 10.3021V10.3024C11.9975 10.4118 12.1376 10.4732 12.2836 10.4732H13.9747C15.2485 10.4717 16.4694 11.0115 17.3642 11.9719L19.662 14.1744C19.7633 14.2817 19.8198 14.4276 19.8188 14.5794C19.8174 14.9013 19.5723 15.1627 19.2683 15.1661C19.1214 15.1661 18.9806 15.1031 18.8781 14.9911L16.909 13.0044L16.9007 12.9955C16.8756 12.9755 16.8491 12.958 16.8213 12.9429C16.7901 12.9172 16.7562 12.8948 16.7205 12.876C16.6913 12.8674 16.6615 12.8612 16.6313 12.8578C16.5913 12.8448 16.55 12.8364 16.5082 12.8328C16.4775 12.8364 16.4475 12.8427 16.4178 12.8515C16.3784 12.856 16.3398 12.8651 16.3022 12.8784C16.2732 12.8953 16.2457 12.9148 16.2197 12.9367C16.186 12.9554 16.1543 12.9778 16.1251 13.0036L10.2081 19.3188L8.84516 17.7948ZM25.8082 14.4271C25.7261 14.5141 25.6723 14.6263 25.6541 14.7479C25.4824 15.9026 24.9687 16.9692 24.1877 17.7945L18.0164 24.3332C17.9153 24.4397 17.7782 24.4996 17.6354 24.4993C17.3329 24.4959 17.0881 24.2368 17.0849 23.916C17.0834 23.7642 17.14 23.6181 17.242 23.5111L17.6008 23.1309C17.6585 23.0678 17.7018 22.9915 17.7273 22.9079L19.1112 21.4416H19.1115C19.2176 21.333 19.2781 21.1835 19.2793 21.027C19.2808 20.8705 19.2225 20.7202 19.1181 20.6095C19.0139 20.4989 18.8718 20.4374 18.7241 20.4387C18.5764 20.44 18.4356 20.5041 18.3329 20.6168L14.8234 24.3355C14.7224 24.442 14.5858 24.5019 14.443 24.5017C14.1402 24.4985 13.8957 24.2392 13.8925 23.9183C13.8903 23.7655 13.9466 23.6181 14.049 23.51L17.559 19.7913C17.7676 19.5624 17.7647 19.1986 17.5524 18.9736C17.3398 18.7486 16.9965 18.7455 16.7804 18.9666L13.2704 22.6853C13.1694 22.7918 13.0323 22.8517 12.8895 22.8514C12.587 22.848 12.3422 22.5889 12.339 22.2681C12.3368 22.115 12.3936 21.9676 12.4961 21.8598L15.9927 18.1411C16.2014 17.9122 16.1984 17.5484 15.9861 17.3234C15.7738 17.0983 15.4304 17.0952 15.2144 17.3163L11.7049 21.0355C11.6039 21.1423 11.467 21.2019 11.3245 21.2012C11.0217 21.198 10.7769 20.9387 10.774 20.6178C10.7723 20.4644 10.8295 20.3171 10.9325 20.2095L16.5268 14.2328L18.105 15.8247C18.4117 16.1515 18.8293 16.3346 19.2643 16.3328H19.2709C19.7077 16.3291 20.1254 16.1435 20.4339 15.8161C20.7425 15.4885 20.917 15.0455 20.9197 14.5828C20.9212 14.1102 20.7408 13.657 20.4203 13.3282L18.1232 11.1271C17.9662 10.9631 17.8008 10.8086 17.6277 10.6641C18.093 10.5336 18.5727 10.4696 19.0541 10.4732H20.7452C20.8912 10.4732 21.0313 10.4118 21.1345 10.3024L22.1952 9.17848L26.4798 13.7154L25.8082 14.4271ZM28.0764 13.7568L22.2472 7.58295L25.8343 3.74527L31.6697 9.92851L28.0764 13.7568Z" fill="url(#paint1_linear_7_6)"/>
<defs>
<linearGradient id="paint0_linear_7_6" x1="9.36591" y1="14.0468" x2="13.4976" y2="14.0468" gradientUnits="userSpaceOnUse">
<stop stop-color="#DA5959"/>
<stop offset="1" stop-color="#6B15A0"/>
</linearGradient>
<linearGradient id="paint1_linear_7_6" x1="-2.90503e-07" y1="10.2308" x2="32.45" y2="10.2308" gradientUnits="userSpaceOnUse">
<stop stop-color="#DA5959"/>
<stop offset="1" stop-color="#6B15A0"/>
</linearGradient>
</defs>
</svg>
